<?xml version="1.0" encoding="UTF-8" standalone="no"?>
<!DOCTYPE svg PUBLIC "-//W3C//DTD SVG 1.1//EN" "http://www.w3.org/Graphics/SVG/1.1/DTD/svg11.dtd">
<svg width="100%" height="100%" viewBox="0 0 800 800" version="1.1" xmlns="http://www.w3.org/2000/svg" xmlns:xlink="http://www.w3.org/1999/xlink" xml:space="preserve" xmlns:serif="http://www.serif.com/" style="fill-rule:evenodd;clip-rule:evenodd;stroke-linejoin:round;stroke-miterlimit:2;">
    <g id="Itch" transform="matrix(24.6574,0,0,24.6574,5.40724,5.56751)">
        <path d="M4.172,1.787C2.776,2.615 0.027,5.771 0,6.599L0,7.974C0,9.709 1.625,11.241 3.099,11.241C4.87,11.241 6.35,9.772 6.35,8.028C6.35,9.772 7.771,11.241 9.547,11.241C11.318,11.241 12.698,9.772 12.698,8.028C12.698,9.772 14.214,11.241 15.985,11.241L16.017,11.241C17.793,11.241 19.308,9.772 19.308,8.028C19.308,9.772 20.689,11.241 22.46,11.241C24.231,11.241 25.657,9.772 25.657,8.028C25.657,9.772 27.132,11.241 28.902,11.241C30.381,11.241 32.006,9.709 32.006,7.974L32.006,6.599C31.974,5.771 29.23,2.615 27.829,1.787C23.49,1.631 20.485,1.604 16.006,1.604C11.522,1.609 5.413,1.677 4.178,1.787L4.172,1.787ZM12.677,10.421C12.494,10.729 12.292,10.989 12.052,11.218L12.052,11.223C11.38,11.874 10.464,12.28 9.453,12.28C8.437,12.28 7.521,11.873 6.854,11.217C6.609,10.982 6.426,10.728 6.254,10.43C6.087,10.727 5.854,10.982 5.609,11.217C4.937,11.873 4.021,12.28 3.01,12.28L3.005,12.28C2.885,12.28 2.76,12.244 2.656,12.207C2.516,13.692 2.453,15.108 2.432,16.144L2.432,16.149C2.427,16.676 2.427,17.102 2.421,17.701C2.453,20.816 2.114,27.79 3.797,29.504C6.401,30.108 11.193,30.384 15.994,30.389L15.999,30.389C20.806,30.384 25.592,30.108 28.196,29.504C29.879,27.791 29.54,20.816 29.572,17.701C29.567,17.102 29.567,16.676 29.561,16.149L29.561,16.144C29.54,15.108 29.482,13.692 29.337,12.207C29.238,12.244 29.108,12.28 28.988,12.28L28.983,12.28C27.972,12.28 27.056,11.873 26.384,11.217L26.389,11.217C26.144,10.982 25.91,10.728 25.744,10.43L25.739,10.43C25.572,10.727 25.384,10.982 25.144,11.217C24.477,11.873 23.561,12.28 22.545,12.28C21.534,12.28 20.618,11.873 19.946,11.217C19.706,10.988 19.503,10.722 19.331,10.43L19.32,10.414C19.148,10.722 18.94,10.987 18.705,11.217C18.033,11.873 17.117,12.28 16.106,12.28L16.101,12.28C16.07,12.28 16.033,12.28 15.997,12.275C15.961,12.28 15.924,12.28 15.888,12.28L15.883,12.28C14.872,12.28 13.956,11.873 13.29,11.217C13.05,10.988 12.847,10.722 12.681,10.43L12.67,10.414L12.677,10.421ZM10.005,13.875C11.062,13.88 12,13.875 13.166,15.146C14.082,15.053 15.041,15.006 15.999,15.006C16.957,15.006 17.916,15.053 18.832,15.146C19.999,13.875 20.936,13.875 21.993,13.875L21.998,13.875C22.498,13.875 24.498,13.875 25.889,17.787L27.384,23.156C28.493,27.151 27.029,27.251 25.207,27.251C22.499,27.151 20.999,25.183 20.999,23.214C19.499,23.465 17.748,23.585 15.999,23.585C14.25,23.585 12.499,23.465 11.004,23.214C11.004,25.183 9.504,27.151 6.796,27.251C4.968,27.246 3.504,27.151 4.613,23.156L6.108,17.787C7.504,13.875 9.504,13.875 10.004,13.875L10.005,13.875ZM16,16.953C15.995,16.953 13.151,19.573 12.636,20.5L14.5,20.427L14.5,22.052C14.5,22.131 15.251,22.099 16,22.063C16.749,22.099 17.495,22.131 17.495,22.052L17.495,20.427L19.364,20.5C18.849,19.573 16,16.953 16,16.953Z" style="fill:white;fill-rule:nonzero;"/>
    </g>
</svg>
