<?xml version="1.0" encoding="UTF-8" standalone="no"?>
<!DOCTYPE svg PUBLIC "-//W3C//DTD SVG 1.1//EN" "http://www.w3.org/Graphics/SVG/1.1/DTD/svg11.dtd">
<svg width="100%" height="100%" viewBox="0 0 800 800" version="1.1" xmlns="http://www.w3.org/2000/svg" xmlns:xlink="http://www.w3.org/1999/xlink" xml:space="preserve" xmlns:serif="http://www.serif.com/" style="fill-rule:evenodd;clip-rule:evenodd;stroke-linejoin:round;stroke-miterlimit:2;">
    <g id="Threads" transform="matrix(2.43595,0,0,2.43595,411.711,262.266)">
        <path d="M0,113.084C-17.617,114.076 -35.919,106.169 -36.822,89.231C-37.491,76.674 -27.885,62.661 1.082,60.991C4.398,60.8 7.654,60.707 10.852,60.707C21.373,60.707 31.216,61.729 40.165,63.686C36.827,105.369 17.249,112.138 0,113.085L0,113.084ZM72.725,44.71C71.329,44.041 69.912,43.397 68.476,42.781C65.975,-3.299 40.796,-29.68 -1.482,-29.95C-1.675,-29.951 -1.863,-29.951 -2.056,-29.951C-27.343,-29.951 -48.375,-19.157 -61.32,0.485L-38.068,16.436C-28.398,1.764 -13.221,-1.364 -2.045,-1.364C-1.916,-1.364 -1.785,-1.364 -1.658,-1.363C12.263,-1.275 22.767,2.773 29.565,10.666C34.514,16.413 37.822,24.354 39.461,34.375C27.119,32.277 13.771,31.632 -0.498,32.45C-40.694,34.766 -66.536,58.209 -64.8,90.784C-63.919,107.309 -55.688,121.523 -41.622,130.81C-29.729,138.66 -14.413,142.499 1.505,141.63C22.527,140.478 39.02,132.457 50.524,117.791C59.262,106.653 64.788,92.221 67.229,74.034C77.247,80.081 84.672,88.037 88.772,97.602C95.745,113.86 96.152,140.578 74.352,162.36C55.251,181.442 32.291,189.697 -2.407,189.952C-40.898,189.668 -70.007,177.323 -88.934,153.264C-106.657,130.734 -115.816,98.192 -116.158,56.542C-115.816,14.891 -106.657,-17.65 -88.934,-40.18C-70.007,-64.24 -40.898,-76.583 -2.408,-76.869C36.361,-76.581 65.979,-64.178 85.629,-40.002C95.265,-28.146 102.529,-13.237 107.318,4.146L134.565,-3.124C128.761,-24.521 119.627,-42.959 107.196,-58.25C82.004,-89.245 45.16,-105.127 -2.313,-105.456L-2.505,-105.456C-49.881,-105.127 -86.313,-89.186 -110.787,-58.073C-132.567,-30.386 -143.801,8.138 -144.179,56.428L-144.18,56.542L-144.179,56.655C-143.801,104.945 -132.567,143.471 -110.787,171.157C-86.313,202.269 -49.881,218.212 -2.505,218.54L-2.313,218.54C39.808,218.247 69.497,207.22 93.955,182.783C125.955,150.814 124.991,110.742 114.444,86.142C106.878,68.501 92.451,54.172 72.725,44.709L72.725,44.71Z" style="fill:white;fill-rule:nonzero;"/>
    </g>
</svg>
