<?xml version="1.0" encoding="UTF-8" standalone="no"?>
<!DOCTYPE svg PUBLIC "-//W3C//DTD SVG 1.1//EN" "http://www.w3.org/Graphics/SVG/1.1/DTD/svg11.dtd">
<svg width="100%" height="100%" viewBox="0 0 800 800" version="1.1" xmlns="http://www.w3.org/2000/svg" xmlns:xlink="http://www.w3.org/1999/xlink" xml:space="preserve" xmlns:serif="http://www.serif.com/" style="fill-rule:evenodd;clip-rule:evenodd;stroke-linejoin:round;stroke-miterlimit:2;">
    <g id="YouTube" transform="matrix(39.4593,0,0,39.4593,-9622.66,-287219)">
        <path d="M251.988,7291.59L251.988,7285.97C253.981,7286.91 255.524,7287.82 257.348,7288.79C255.843,7289.63 253.981,7290.57 251.988,7291.59M263.091,7283.18C262.747,7282.73 262.162,7282.38 261.538,7282.26C259.705,7281.91 248.271,7281.91 246.439,7282.26C245.939,7282.36 245.494,7282.58 245.111,7282.93C243.5,7284.43 244.005,7292.45 244.393,7293.75C244.557,7294.31 244.768,7294.72 245.034,7294.99C245.376,7295.34 245.845,7295.58 246.384,7295.69C247.893,7296 255.668,7296.18 261.506,7295.74C262.044,7295.64 262.52,7295.39 262.896,7295.02C264.386,7293.53 264.284,7285.06 263.091,7283.18" style="fill:white;"/>
    </g>
</svg>
