<?xml version="1.0" encoding="UTF-8" standalone="no"?>
<!DOCTYPE svg PUBLIC "-//W3C//DTD SVG 1.1//EN" "http://www.w3.org/Graphics/SVG/1.1/DTD/svg11.dtd">
<svg width="100%" height="100%" viewBox="0 0 800 800" version="1.1" xmlns="http://www.w3.org/2000/svg" xmlns:xlink="http://www.w3.org/1999/xlink" xml:space="preserve" xmlns:serif="http://www.serif.com/" style="fill-rule:evenodd;clip-rule:evenodd;stroke-linejoin:round;stroke-miterlimit:2;">
    <g id="DeviantArt" transform="matrix(1.59845,0,0,1.59845,8.38017,8.38017)">
        <path d="M397.5,255L313.9,255L391.39,104.58C392.119,103.163 392.5,101.593 392.5,100L392.5,10C392.5,4.477 388.022,0 382.5,0L297.5,0C293.636,0 290.117,2.227 288.463,5.719L246.172,95L92.5,95C86.978,95 82.5,99.477 82.5,105L82.5,225C82.5,230.523 86.978,235 92.5,235L171.319,235L93.556,390.528C92.861,391.917 92.5,393.448 92.5,395L92.5,480C92.5,485.523 96.978,490 102.5,490L192.5,490C196.364,490 199.883,487.773 201.537,484.281L243.828,395L397.5,395C403.022,395 407.5,390.523 407.5,385L407.5,265C407.5,259.477 403.022,255 397.5,255ZM387.5,375L237.5,375C233.636,375 230.117,377.226 228.463,380.719L186.172,470L112.5,470L112.5,397.361L196.445,229.473C197.994,226.372 197.828,222.691 196.007,219.743C194.185,216.794 190.966,215 187.5,215L102.5,215L102.5,115L252.5,115C256.364,115 259.883,112.774 261.537,109.281L303.828,20L372.5,20L372.5,97.576L288.61,260.42C287.014,263.52 287.147,267.228 288.962,270.206C290.777,273.183 294.013,275 297.5,275L387.5,275L387.5,375Z" style="fill:white;fill-rule:nonzero;stroke:white;stroke-width:3.65px;"/>
    </g>
</svg>
